<svg id="Group_72" data-name="Group 72" xmlns="http://www.w3.org/2000/svg" width="42.993" height="42.993" viewBox="0 0 42.993 42.993">
  <path id="Path_538" data-name="Path 538" d="M215.229,211.115A4.115,4.115,0,1,1,211.115,207,4.114,4.114,0,0,1,215.229,211.115Z" transform="translate(-189.618 -189.618)"/>
  <path id="Path_539" data-name="Path 539" d="M155.227,138.328a4.088,4.088,0,0,0-2.343-2.343,6.831,6.831,0,0,0-2.292-.425c-1.3-.059-1.692-.072-4.988-.072s-3.686.013-4.988.072a6.835,6.835,0,0,0-2.292.425,4.09,4.09,0,0,0-2.343,2.343,6.833,6.833,0,0,0-.425,2.292c-.059,1.3-.072,1.692-.072,4.988s.013,3.686.072,4.988a6.83,6.83,0,0,0,.425,2.292,4.088,4.088,0,0,0,2.343,2.343,6.821,6.821,0,0,0,2.292.425c1.3.059,1.692.072,4.988.072s3.687-.012,4.988-.072a6.821,6.821,0,0,0,2.292-.425,4.088,4.088,0,0,0,2.343-2.343,6.837,6.837,0,0,0,.425-2.292c.059-1.3.072-1.692.072-4.988s-.012-3.687-.072-4.988A6.823,6.823,0,0,0,155.227,138.328ZM145.6,151.946a6.338,6.338,0,1,1,6.339-6.339A6.339,6.339,0,0,1,145.6,151.946Zm6.589-11.446a1.481,1.481,0,1,1,1.481-1.481A1.481,1.481,0,0,1,152.193,140.5Z" transform="translate(-124.107 -124.111)"/>
  <path id="Path_540" data-name="Path 540" d="M21.5,0a21.5,21.5,0,1,0,21.5,21.5A21.5,21.5,0,0,0,21.5,0ZM33.766,26.586a9.056,9.056,0,0,1-.574,3,6.311,6.311,0,0,1-3.61,3.61,9.063,9.063,0,0,1-3,.574c-1.316.06-1.737.074-5.089.074s-3.773-.014-5.089-.074a9.062,9.062,0,0,1-3-.574,6.312,6.312,0,0,1-3.61-3.61,9.054,9.054,0,0,1-.574-3c-.061-1.317-.075-1.737-.075-5.089s.014-3.773.074-5.089a9.057,9.057,0,0,1,.573-3,6.316,6.316,0,0,1,3.61-3.61,9.064,9.064,0,0,1,3-.574c1.316-.06,1.737-.074,5.089-.074s3.773.014,5.089.075a9.067,9.067,0,0,1,3,.573,6.313,6.313,0,0,1,3.61,3.61,9.055,9.055,0,0,1,.574,3c.06,1.316.074,1.737.074,5.089S33.826,25.269,33.766,26.586Z"/>
</svg>
