<svg id="Group_73" data-name="Group 73" xmlns="http://www.w3.org/2000/svg" width="42.793" height="42.793" viewBox="0 0 42.793 42.793">
  <path id="Path_541" data-name="Path 541" d="M224.113,216.056l6.96-4.009-6.96-4.009Z" transform="translate(-205.382 -190.651)"/>
  <path id="Path_542" data-name="Path 542" d="M21.4,0a21.4,21.4,0,1,0,21.4,21.4A21.4,21.4,0,0,0,21.4,0Zm13.37,21.418a35.314,35.314,0,0,1-.55,6.432,3.35,3.35,0,0,1-2.357,2.357c-2.092.551-10.462.551-10.462.551s-8.348,0-10.462-.573a3.351,3.351,0,0,1-2.357-2.357A35.158,35.158,0,0,1,8.027,21.4a35.29,35.29,0,0,1,.551-6.431,3.418,3.418,0,0,1,2.357-2.379c2.092-.551,10.462-.551,10.462-.551s8.37,0,10.462.573a3.351,3.351,0,0,1,2.357,2.357A33.51,33.51,0,0,1,34.766,21.418Z"/>
</svg>
