<svg xmlns="http://www.w3.org/2000/svg" width="874.533" height="360.133" viewBox="0 0 874.533 360.133">
  <g id="Group_111" data-name="Group 111" transform="translate(-7594.133 -7111)">
    <g id="Ellipse_9" data-name="Ellipse 9" transform="translate(7869 7128)" fill="#fff" stroke="#cbb486" stroke-width="2">
      <circle cx="154" cy="154" r="154" stroke="none"/>
      <circle cx="154" cy="154" r="153" fill="none"/>
    </g>
    <text id="Działamy_ponieważ:_" data-name="Działamy
ponieważ:
" transform="translate(7867 7237)" font-size="35" font-family="PlayfairDisplay-Regular, Playfair Display"><tspan x="82.253" y="38">Działamy</tspan><tspan x="75.813" y="83">ponieważ:</tspan><tspan x="155" y="128"></tspan></text>
    <path id="Path_544" data-name="Path 544" d="M7894.667,7194.133l-34.4-34.4H7628.133" transform="translate(1 2)" fill="none" stroke="#cbb486" stroke-width="2"/>
    <text id="walczymy_z_dyskryminacją" data-name="walczymy z dyskryminacją" transform="translate(7741.5 7148)" font-size="17" font-family="Lato-Regular, Lato"><tspan x="-97.253" y="0">walczymy z dyskryminacją</tspan></text>
    <path id="Path_545" data-name="Path 545" d="M7628.133,7194.133l34.4-34.4h232.133" transform="translate(523 2)" fill="none" stroke="#cbb486" stroke-width="2"/>
    <text id="wspieramy_równość_kobiet_i_mężczyzn" data-name="wspieramy równośćkobiet i mężczyzn" transform="translate(8300.5 7128)" font-size="17" font-family="Lato-Regular, Lato"><tspan x="-73.755" y="0">wspieramy równość</tspan><tspan x="-65.701" y="20">kobiet i mężczyzn</tspan></text>
    <path id="Path_546" data-name="Path 546" d="M7894.667,7159.734l-34.4,34.4H7628.133" transform="translate(-24 122)" fill="none" stroke="#cbb486" stroke-width="2"/>
    <text id="promujemy_zdrowie_kobiet_oraz_dostęp_do_edukacji_seksualnej" data-name="promujemy zdrowie kobiet oraz dostęp do edukacji seksualnej" transform="translate(7719.5 7258)" font-size="17" font-family="Lato-Regular, Lato"><tspan x="-100.963" y="0">promujemy zdrowie kobiet </tspan><tspan x="-45.802" y="20">oraz dostęp </tspan><tspan x="-83.007" y="40">do edukacji seksualnej</tspan></text>
    <path id="Path_547" data-name="Path 547" d="M7628.133,7159.734l34.4,34.4h232.133" transform="translate(548 122)" fill="none" stroke="#cbb486" stroke-width="2"/>
    <text id="promujemy_budowę_i_umacnianie_demokracji_oraz_rozwój_społeczeństwa_obywatelskiego" data-name="promujemy budowę i umacnianie demokracji oraz rozwój społeczeństwa obywatelskiego" transform="translate(8328.5 7244)" font-size="17" font-family="Lato-Regular, Lato"><tspan x="-76.292" y="0">promujemy budowę </tspan><tspan x="-91.626" y="20">i umacnianie demokracji </tspan><tspan x="-102.417" y="40">oraz rozwój społeczeństwa </tspan><tspan x="-57.864" y="60">obywatelskiego</tspan></text>
    <path id="Path_548" data-name="Path 548" d="M7894.667,7159.734l-34.4,34.4H7458.133" transform="translate(136 276)" fill="none" stroke="#cbb486" stroke-width="2"/>
    <text id="wspieramy_tolerancę_pluralizm_światopoglądowy_przestrzeganie_praw_człowieka_i_obywatela" data-name="wspieramy tolerancę, pluralizm światopoglądowy,przestrzeganie praw człowieka i obywatela" transform="translate(7779.5 7417)" font-size="17" font-family="Lato-Regular, Lato"><tspan x="-81.009" y="0">wspieramy tolerancę, </tspan><tspan x="-102.625" y="20">pluralizm światopoglądowy,</tspan><tspan x="-158.746" y="40">przestrzeganie praw człowieka i obywatela</tspan></text>
    <path id="Path_549" data-name="Path 549" d="M7458.133,7159.734l34.4,34.4h402.133" transform="translate(574 276)" fill="none" stroke="#cbb486" stroke-width="2"/>
    <text id="propagujemy_pogłębienie_idei_wolności_słowa_oraz_wolnych_i_niezależnych_środków_masowego_przekazu" data-name="propagujemy pogłębienie idei wolności słowa oraz wolnych i niezależnych środków masowego przekazu" transform="translate(8280.5 7417)" font-size="17" font-family="Lato-Regular, Lato"><tspan x="-96.241" y="0">propagujemy pogłębienie </tspan><tspan x="-123.433" y="20">idei wolności słowa oraz wolnych</tspan><tspan x="-164.968" y="40" xml:space="preserve"> i niezależnych środków masowego przekazu</tspan></text>
  </g>
</svg>
