<svg id="czytelnictwo_mobile" data-name="czytelnictwo mobile" xmlns="http://www.w3.org/2000/svg" width="314" height="1158" viewBox="0 0 314 1158">
  <g id="Ellipse_6" data-name="Ellipse 6" transform="translate(29 296)" fill="#fff" stroke="#cbb486" stroke-width="1">
    <ellipse cx="128.5" cy="128" rx="128.5" ry="128" stroke="none"/>
    <ellipse cx="128.5" cy="128" rx="128" ry="127.5" fill="none"/>
  </g>
  <g id="Ellipse_7" data-name="Ellipse 7" transform="translate(29 594)" fill="#fff" stroke="#cbb486" stroke-width="1">
    <ellipse cx="128.5" cy="128" rx="128.5" ry="128" stroke="none"/>
    <ellipse cx="128.5" cy="128" rx="128" ry="127.5" fill="none"/>
  </g>
  <text id="sprzedaż" transform="translate(89 397)" font-size="29" font-family="PlayfairDisplay-Bold, Playfair Display" font-weight="700"><tspan x="0" y="0">sprzedaż</tspan></text>
  <text id="_88_164_egzemplarzy" data-name="88 164
egzemplarzy" transform="translate(89 460)" font-size="41" font-family="Lato-Black, Lato" font-weight="800"><tspan x="0" y="0">88 164</tspan><tspan font-size="16" font-family="Lato-Bold, Lato" font-weight="700"><tspan x="0" y="25">egzemplarzy</tspan></tspan></text>
  <line id="Line_12" data-name="Line 12" x2="142.462" transform="translate(89.454 413.985)" fill="none" stroke="#cbb486" stroke-width="3"/>
  <g id="Rectangle_22" data-name="Rectangle 22" transform="translate(0 890)" fill="none" stroke="#cbb486" stroke-width="1">
    <rect width="314" height="149" stroke="none"/>
    <rect x="0.5" y="0.5" width="313" height="148" fill="none"/>
  </g>
  <g id="Group_71" data-name="Group 71" transform="translate(0 1066.33)">
    <path id="Path_537" data-name="Path 537" d="M295.191,278.276a18.193,18.193,0,1,0,18.2,18.192,18.214,18.214,0,0,0-18.2-18.192Zm4.527,18.832h-2.96V307.66h-4.387V297.108h-2.086V293.38h2.086v-2.412a4.114,4.114,0,0,1,4.426-4.426l3.249.014v3.618h-2.358a.893.893,0,0,0-.931,1.016v2.194H300.1Zm0,0" transform="translate(-277 -278.276)" fill="#cbb486"/>
  </g>
  <g id="Group_72" data-name="Group 72" transform="translate(162 1067.074)">
    <path id="Path_538" data-name="Path 538" d="M213.918,210.459A3.459,3.459,0,1,1,210.459,207,3.459,3.459,0,0,1,213.918,210.459Z" transform="translate(-192.388 -192.388)" fill="#cbb486"/>
    <path id="Path_539" data-name="Path 539" d="M152.08,137.875a3.436,3.436,0,0,0-1.969-1.969,5.743,5.743,0,0,0-1.927-.357c-1.094-.05-1.423-.061-4.193-.061s-3.1.011-4.193.06a5.746,5.746,0,0,0-1.927.357,3.438,3.438,0,0,0-1.97,1.969,5.744,5.744,0,0,0-.357,1.927c-.05,1.094-.061,1.422-.061,4.193s.011,3.1.061,4.193a5.741,5.741,0,0,0,.357,1.927,3.436,3.436,0,0,0,1.969,1.969,5.734,5.734,0,0,0,1.927.357c1.094.05,1.422.06,4.193.06s3.1-.011,4.193-.06a5.734,5.734,0,0,0,1.927-.357,3.437,3.437,0,0,0,1.969-1.969,5.748,5.748,0,0,0,.357-1.927c.05-1.094.06-1.422.06-4.193s-.01-3.1-.06-4.193A5.736,5.736,0,0,0,152.08,137.875Zm-8.089,11.448a5.328,5.328,0,1,1,5.328-5.328A5.328,5.328,0,0,1,143.991,149.323Zm5.539-9.622a1.245,1.245,0,1,1,1.245-1.245A1.245,1.245,0,0,1,149.53,139.7Z" transform="translate(-125.92 -125.924)" fill="#cbb486"/>
    <path id="Path_540" data-name="Path 540" d="M18.071,0A18.071,18.071,0,1,0,36.142,18.071,18.073,18.073,0,0,0,18.071,0ZM28.385,22.349a7.613,7.613,0,0,1-.482,2.519A5.306,5.306,0,0,1,24.868,27.9a7.619,7.619,0,0,1-2.519.482c-1.106.05-1.46.063-4.278.063s-3.172-.012-4.278-.063a7.618,7.618,0,0,1-2.519-.482,5.306,5.306,0,0,1-3.035-3.035,7.611,7.611,0,0,1-.482-2.519c-.051-1.107-.063-1.46-.063-4.278s.012-3.172.063-4.278a7.614,7.614,0,0,1,.482-2.519,5.309,5.309,0,0,1,3.035-3.035,7.62,7.62,0,0,1,2.519-.482c1.106-.05,1.46-.063,4.278-.063s3.172.012,4.278.063a7.622,7.622,0,0,1,2.519.482A5.307,5.307,0,0,1,27.9,11.274a7.612,7.612,0,0,1,.483,2.519c.05,1.106.062,1.46.062,4.278S28.436,21.242,28.385,22.349Z" transform="translate(0 0)" fill="#cbb486"/>
  </g>
  <text id="nakład" transform="translate(80 694)" font-size="29" font-family="PlayfairDisplay-Bold, Playfair Display" font-weight="700"><tspan x="0" y="0">nakład</tspan></text>
  <text id="_146_769_egzemplarzy" data-name="146 769
egzemplarzy" transform="translate(80 756)" font-size="41" font-family="Lato-Black, Lato" font-weight="800"><tspan x="0" y="0">146 769</tspan><tspan font-size="16" font-family="Lato-Bold, Lato" font-weight="700"><tspan x="0" y="25">egzemplarzy</tspan></tspan></text>
  <line id="Line_13" data-name="Line 13" x2="142.462" transform="translate(80.866 710.778)" fill="none" stroke="#cbb486" stroke-width="3"/>
  <text id="_314_840_polubień" data-name="314 840 
polubień" transform="translate(61.749 1085.587)" font-size="20" font-family="Lato-Black, Lato" font-weight="800"><tspan x="0" y="0">314 840 </tspan><tspan font-size="8" font-family="Lato-Bold, Lato" font-weight="700"><tspan x="0" y="12">polubień</tspan></tspan></text>
  <text id="_108_000_obserwujących" data-name="108 000 
obserwujących" transform="translate(223.749 1086.33)" font-size="20" font-family="Lato-Black, Lato" font-weight="800"><tspan x="0" y="0">108 000 </tspan><tspan font-size="8" font-family="Lato-Bold, Lato" font-weight="700"><tspan x="0" y="12">obserwujących</tspan></tspan></text>
  <g id="Ellipse_8" data-name="Ellipse 8" transform="translate(30)" fill="#fff" stroke="#cbb486" stroke-width="1">
    <ellipse cx="127.5" cy="128" rx="127.5" ry="128" stroke="none"/>
    <ellipse cx="127.5" cy="128" rx="127" ry="127.5" fill="none"/>
  </g>
  <text id="czytelnictwo" transform="translate(77 101)" font-size="29" font-family="PlayfairDisplay-Bold, Playfair Display" font-weight="700"><tspan x="0" y="0">czytelnictwo</tspan></text>
  <text id="_326_164_czytelników" data-name="326 164
czytelników" transform="translate(77 162)" font-size="41" font-family="Lato-Black, Lato" font-weight="800"><tspan x="0" y="0">326 164</tspan><tspan font-size="16" font-family="Lato-Bold, Lato" font-weight="700"><tspan x="0" y="25">czytelników</tspan></tspan></text>
  <line id="Line_14" data-name="Line 14" x2="142.462" transform="translate(77.688 117.741)" fill="none" stroke="#cbb486" stroke-width="3"/>
  <text id="serwis_wysokie_obcasy.pl" data-name="serwis wysokie obcasy.pl" transform="translate(26 933)" font-size="18" font-family="PlayfairDisplay-Bold, Playfair Display" font-weight="700"><tspan x="0" y="0">serwis wysokie obcasy.pl</tspan></text>
  <text id="UU_2_853_704_PV_7_082_721_" data-name="UU 2 853 704 
PV 7 082 721 " transform="translate(26 975)" font-size="26" font-family="Lato-Medium, Lato" font-weight="500"><tspan x="0" y="0">UU</tspan><tspan y="0" font-family="Lato-Bold, Lato" font-weight="700"> </tspan><tspan y="0" font-family="Lato-Black, Lato" font-weight="800">2 853 704 </tspan><tspan x="0" y="32">PV</tspan><tspan y="32" font-family="Lato-Bold, Lato" font-weight="700"> </tspan><tspan y="32" font-family="Lato-Black, Lato" font-weight="800">7 082 721 </tspan></text>
  <text id="źródło:_Data_Ocean_PV_i_UU_w_ujęciu_miesięcznym_2021" data-name="źródło: Data Ocean, PV i UU w ujęciu miesięcznym, 2021" transform="translate(7 1155)" font-size="12" font-family="Lato-Medium, Lato" font-weight="500"><tspan x="0" y="0">źródło</tspan><tspan y="0" font-family="Lato-Bold, Lato" font-weight="700">: Data Ocean, PV i UU w ujęciu miesięcznym, 2021</tspan></text>
</svg>
